HIERARCHY
ROOT hip
{
  OFFSET 0 0 0
  CHANNELS 6 Xposition Yposition Zposition Zrotation Yrotation Xrotation
  JOINT abdomen
  {
    OFFSET 0 20.6881 -0.73152
    CHANNELS 3 Zrotation Xrotation Yrotation
    JOINT chest
    {
      OFFSET 0 11.7043 -0.48768
      CHANNELS 3 Zrotation Xrotation Yrotation
      JOINT neck
      {
        OFFSET 0 22.1894 -2.19456
        CHANNELS 3 Zrotation Xrotation Yrotation
        JOINT head
        {
          OFFSET -0.24384 7.07133 1.2192
          CHANNELS 3 Zrotation Xrotation Yrotation
          JOINT leftEye
          {
            OFFSET 4.14528 8.04674 8.04672
            CHANNELS 3 Zrotation Xrotation Yrotation
            End Site
            {
              OFFSET 1 0 0
            }
          }
          JOINT rightEye
          {
            OFFSET -3.6576 8.04674 8.04672
            CHANNELS 3 Zrotation Xrotation Yrotation
            End Site
            {
              OFFSET 1 0 0
            }
          }
        }
      }
      JOINT rCollar
      {
        OFFSET -2.68224 19.2634 -4.8768
        CHANNELS 3 Zrotation Xrotation Yrotation
        JOINT rShldr
        {
          OFFSET -8.77824 -1.95073 1.46304
          CHANNELS 3 Zrotation Xrotation Yrotation
          JOINT rForeArm
          {
            OFFSET -28.1742 -1.7115 0.48768
            CHANNELS 3 Zrotation Xrotation Yrotation
            JOINT rHand
            {
              OFFSET -22.5879 0.773209 7.07136
              CHANNELS 3 Zrotation Xrotation Yrotation
              JOINT rThumb1
              {
                OFFSET -1.2192 -0.487915 3.41376
                CHANNELS 3 Zrotation Xrotation Yrotation
                JOINT rThumb2
                {
                  OFFSET -3.37035 -0.52449 3.41376
                  CHANNELS 3 Zrotation Xrotation Yrotation
                  End Site
                  {
                    OFFSET -1.78271 -1.18214 1.43049
                  }
                }
              }
              JOINT rIndex1
              {
                OFFSET -7.75947 0.938293 5.60832
                CHANNELS 3 Zrotation Xrotation Yrotation
                JOINT rIndex2
                {
                  OFFSET -2.54057 -0.884171 1.56538
                  CHANNELS 3 Zrotation Xrotation Yrotation
                  End Site
                  {
                    OFFSET -1.62519 -0.234802 1.16502
                  }
                }
              }
              JOINT rMid1
              {
                OFFSET -8.24714 1.18213 3.41376
                CHANNELS 3 Zrotation Xrotation Yrotation
                JOINT rMid2
                {
                  OFFSET -3.10165 -0.590103 1.0647
                  CHANNELS 3 Zrotation Xrotation Yrotation
                  End Site
                  {
                    OFFSET -2.48547 -0.328903 0.83742
                  }
                }
              }
              JOINT rRing1
              {
                OFFSET -8.82822 0.546677 1.51678
                CHANNELS 3 Zrotation Xrotation Yrotation
                JOINT rRing2
                {
                  OFFSET -2.60934 -0.819778 -0.0198488
                  CHANNELS 3 Zrotation Xrotation Yrotation
                  End Site
                  {
                    OFFSET -2.33842 -0.294052 0.168128
                  }
                }
              }
              JOINT rPinky1
              {
                OFFSET -8.27202 -0.0477905 -0.4584
                CHANNELS 3 Zrotation Xrotation Yrotation
                JOINT rPinky2
                {
                  OFFSET -1.82734 -0.647385 -0.700984
                  CHANNELS 3 Zrotation Xrotation Yrotation
                  End Site
                  {
                    OFFSET -1.69225 -0.51767 -0.607171
                  }
                }
              }
            }
          }
        }
      }
      JOINT lCollar
      {
        OFFSET 2.68224 19.2634 -4.8768
        CHANNELS 3 Zrotation Xrotation Yrotation
        JOINT lShldr
        {
          OFFSET 8.77824 -1.95073 1.46304
          CHANNELS 3 Zrotation Xrotation Yrotation
          JOINT lForeArm
          {
            OFFSET 28.1742 -1.7115 0.48768
            CHANNELS 3 Zrotation Xrotation Yrotation
            JOINT lHand
            {
              OFFSET 22.5879 0.773209 7.07136
              CHANNELS 3 Zrotation Xrotation Yrotation
              JOINT lThumb1
              {
                OFFSET 1.2192 -0.487915 3.41376
                CHANNELS 3 Zrotation Xrotation Yrotation
                JOINT lThumb2
                {
                  OFFSET 3.37035 -0.52449 3.41376
                  CHANNELS 3 Zrotation Xrotation Yrotation
                  End Site
                  {
                    OFFSET 1.78271 -1.18214 1.43049
                  }
                }
              }
              JOINT lIndex1
              {
                OFFSET 7.75947 0.938293 5.60832
                CHANNELS 3 Zrotation Xrotation Yrotation
                JOINT lIndex2
                {
                  OFFSET 2.54057 -0.884171 1.56538
                  CHANNELS 3 Zrotation Xrotation Yrotation
                  End Site
                  {
                    OFFSET 1.62519 -0.234802 1.16502
                  }
                }
              }
              JOINT lMid1
              {
                OFFSET 8.24714 1.18213 3.41376
                CHANNELS 3 Zrotation Xrotation Yrotation
                JOINT lMid2
                {
                  OFFSET 3.10165 -0.590103 1.0647
                  CHANNELS 3 Zrotation Xrotation Yrotation
                  End Site
                  {
                    OFFSET 2.48547 -0.328903 0.83742
                  }
                }
              }
              JOINT lRing1
              {
                OFFSET 8.82822 0.546677 1.51678
                CHANNELS 3 Zrotation Xrotation Yrotation
                JOINT lRing2
                {
                  OFFSET 2.60934 -0.819778 -0.0198488
                  CHANNELS 3 Zrotation Xrotation Yrotation
                  End Site
                  {
                    OFFSET 2.33842 -0.294052 0.168128
                  }
                }
              }
              JOINT lPinky1
              {
                OFFSET 8.27202 -0.0477905 -0.4584
                CHANNELS 3 Zrotation Xrotation Yrotation
                JOINT lPinky2
                {
                  OFFSET 1.82734 -0.647385 -0.700984
                  CHANNELS 3 Zrotation Xrotation Yrotation
                  End Site
                  {
                    OFFSET 1.69225 -0.51767 -0.607171
                  }
                }
              }
            }
          }
        }
      }
    }
  }
  JOINT rButtock
  {
    OFFSET -8.77824 4.35084 1.2192
    CHANNELS 3 Zrotation Xrotation Yrotation
    JOINT rThigh
    {
      OFFSET 0 -1.70687 -2.19456
      CHANNELS 3 Zrotation Xrotation Yrotation
      JOINT rShin
      {
        OFFSET 0 -36.8199 0.73152
        CHANNELS 3 Zrotation Xrotation Yrotation
        JOINT rFoot
        {
          OFFSET 0.73152 -45.1104 -5.12064
          CHANNELS 3 Zrotation Xrotation Yrotation
          End Site
          {
            OFFSET -1.1221 -3.69964 12.103
          }
        }
      }
    }
  }
  JOINT lButtock
  {
    OFFSET 8.77824 4.35084 1.2192
    CHANNELS 3 Zrotation Xrotation Yrotation
    JOINT lThigh
    {
      OFFSET 0 -1.70687 -2.19456
      CHANNELS 3 Zrotation Xrotation Yrotation
      JOINT lShin
      {
        OFFSET 0 -36.8199 0.73152
        CHANNELS 3 Zrotation Xrotation Yrotation
        JOINT lFoot
        {
          OFFSET -0.73152 -45.1104 -5.12064
          CHANNELS 3 Zrotation Xrotation Yrotation
          End Site
          {
            OFFSET 1.1221 -3.69964 12.103
          }
        }
      }
    }
  }
}
MOTION
Frames:	5
Frame Time:	0.00833333
-81.6929 85.0697 -205.147 0.0 0.0 0.0 0.202513 -0.000639081 0.00577302 0.0558293 -0.000931051 0.00967161 2.93339e-15 -7.95139e-16 -9.31804e-18 8.83349e-15 3.18055e-15 -1.55301e-17 -0.0 0.0 0.0 -0.0 0.0 0.0 1.48962e-15 1.35888e-18 1.49089e-16 3.33704e-14 3.78933e-16 9.93923e-16 5.3478e-13 -1.56642e-13 -9.54166e-15 6.10818e-12 1.70657e-13 -6.36111e-15 1.44076e-11 2.46926e-14 -1.27222e-14 2.48799e-11 4.13472e-14 -3.49861e-14 1.44135e-11 2.54444e-14 -1.90833e-14 7.73091 5.47488 0.417314 1.44079e-11 2.48481e-14 -1.59028e-14 2.90554 0.965183 0.102902 1.44177e-11 2.49475e-14 -1.51076e-14 10.2786 0.731801 0.0259123 1.44045e-11 2.38542e-14 -9.54166e-15 2.22167 -0.733487 -0.20892 1.49225e-15 1.74713e-18 -1.49089e-16 2.8667e-14 2.73329e-16 -9.93923e-16 5.32147e-13 1.63003e-13 -3.18055e-15 6.10865e-12 -1.49585e-13 9.54166e-15 1.44081e-11 2.1719e-14 -1.59028e-14 2.48839e-11 2.8625e-14 -2.38542e-14 1.44039e-11 2.38542e-14 -1.27222e-14 -7.73091 5.47488 -0.417314 1.44074e-11 2.17669e-14 -1.90833e-14 -2.90554 0.965183 -0.102902 1.43998e-11 2.23633e-14 -1.59028e-14 -10.2786 0.731801 -0.0259123 1.44073e-11 2.22639e-14 -2.22639e-14 -2.22167 -0.733487 0.20892 -2.03217e-16 0.0 -3.88251e-19 0.677498 -3.60113 -0.0536497 -0.00454026 0.97012 -0.0387454 -0.524703 2.63023 0.113978 2.03217e-16 0.0 3.88251e-19 -0.369378 -2.81566 0.034263 0.00682569 -0.452696 0.0599311 0.522474 3.26753 -0.126811
-82.0617 83.0365 -207.821 -1.1533 -2.4795 9.0696 0.087956 -2.86917 2.94911 1.54918 0.911577 0.810471 -0.949131 0.644771 -1.1269 0.901853 -6.48953 -1.83115 -0.0 0.0 0.0 -0.0 0.0 0.0 -7.77599e-15 2.36152e-14 9.80335e-16 21.3825 7.66173 -2.1284 -5.21232 -2.60602 7.86725 0.0734444 6.07723 0.837363 2.17729e-10 -8.91384e-11 2.64351e-11 3.76753e-10 -1.49661e-10 4.15187e-11 2.17735e-10 -8.91423e-11 2.64231e-11 7.73091 5.47488 0.417314 2.17731e-10 -8.91412e-11 2.64339e-11 2.90554 0.965183 0.102902 2.17741e-10 -8.9143e-11 2.64298e-11 10.2786 0.731801 0.0259123 2.17727e-10 -8.91392e-11 2.64356e-11 2.22167 -0.733487 -0.20892 -7.79186e-15 2.36169e-14 7.105e-16 -23.0366 11.6332 1.15225 6.3529 -3.49274 -9.17616 -0.00299738 -1.21652 0.170832 3.44507e-11 -4.80528e-11 9.35231e-11 5.9029e-11 -8.42798e-11 1.62273e-10 3.44464e-11 -4.80507e-11 9.35262e-11 -7.73091 5.47488 -0.417314 3.44503e-11 -4.80537e-11 9.35217e-11 -2.90554 0.965183 -0.102902 3.44444e-11 -4.80532e-11 9.35236e-11 -10.2786 0.731801 -0.0259123 3.44529e-11 -4.80524e-11 9.35149e-11 -2.22167 -0.733487 0.20892 -2.03217e-16 0.0 -3.88251e-19 1.3544 -9.24778 0.229271 0.0555692 10.0483 0.178203 -1.48842 -3.82606 -6.06183 2.03217e-16 0.0 3.88251e-19 -0.406772 -9.01328 -1.31255 -0.0807176 9.31119 -0.193171 1.72116 -3.73057 7.11324
-82.0504 83.0292 -207.84 -1.1471 -2.3444 9.1693 0.289386 -5.87325 6.09194 3.09696 1.88139 1.65943 -1.92574 1.31603 -2.31956 1.39577 -13.3217 -3.84717 -0.0 0.0 0.0 -0.0 0.0 0.0 -1.80233e-14 5.03164e-14 1.31384e-15 44.6278 15.7274 -4.50723 -9.93414 -5.18228 16.2103 -0.0480251 12.5961 1.76865 4.5133e-10 -1.87562e-10 5.19965e-11 7.80973e-10 -3.14732e-10 8.09709e-11 4.51337e-10 -1.87571e-10 5.19782e-11 7.73091 5.47488 0.417314 4.51333e-10 -1.87568e-10 5.19977e-11 2.90554 0.965183 0.102902 4.51344e-10 -1.87572e-10 5.19881e-11 10.2786 0.731801 0.0259123 4.51329e-10 -1.87563e-10 5.19941e-11 2.22167 -0.733487 -0.20892 -1.80573e-14 5.03195e-14 1.07468e-15 -47.9427 23.9077 2.54348 11.8726 -6.89132 -18.9913 0.00172445 -2.49436 0.350536 5.38451e-11 -1.08543e-10 1.98481e-10 9.19807e-11 -1.90225e-10 3.44383e-10 5.38406e-11 -1.08541e-10 1.98484e-10 -7.73091 5.47488 -0.417314 5.38449e-11 -1.08545e-10 1.98481e-10 -2.90554 0.965183 -0.102902 5.38409e-11 -1.08545e-10 1.98482e-10 -10.2786 0.731801 -0.0259123 5.38503e-11 -1.08543e-10 1.9847e-10 -2.22167 -0.733487 0.20892 -2.03217e-16 0.0 -3.88251e-19 2.13077 -15.213 0.544361 0.0403395 19.646 0.426867 -4.03034 -10.444 -12.7731 2.03217e-16 0.0 3.88251e-19 -0.779977 -15.5447 -2.81997 -0.0747036 19.6319 -0.483882 4.92509 -10.8147 15.0278
-82.0377 83.0344 -207.823 -1.1336 -2.2091 9.0724 0.747457 -8.51484 8.92385 4.45931 2.73444 2.41451 -2.77132 1.93132 -3.3824 1.39974 -19.3866 -5.78742 -0.0 0.0 0.0 -0.0 0.0 0.0 -2.63072e-14 7.0843e-14 2.64283e-15 65.9747 22.8528 -6.86969 -13.5432 -7.22974 23.7777 -0.336295 18.2157 2.62985 6.24372e-10 -2.67465e-10 7.93307e-11 1.0805e-09 -4.49066e-10 1.24626e-10 6.2438e-10 -2.67478e-10 7.93073e-11 7.73091 5.47488 0.417314 6.24377e-10 -2.67473e-10 7.93336e-11 2.90554 0.965183 0.102902 6.24388e-10 -2.67479e-10 7.93195e-11 10.2786 0.731801 0.0259123 6.24373e-10 -2.67465e-10 7.93258e-11 2.22167 -0.733487 -0.20892 -2.63601e-14 7.08472e-14 2.42968e-15 -70.7723 34.8368 4.12617 15.8086 -9.40485 -27.8836 0.0128081 -3.64943 0.513422 7.4536e-11 -1.44202e-10 2.80601e-10 1.27319e-10 -2.52897e-10 4.86866e-10 7.45313e-11 -1.442e-10 2.80604e-10 -7.73091 5.47488 -0.417314 7.45361e-11 -1.44205e-10 2.80603e-10 -2.90554 0.965183 -0.102902 7.45336e-11 -1.44204e-10 2.80603e-10 -10.2786 0.731801 -0.0259123 7.4544e-11 -1.44202e-10 2.80589e-10 -2.22167 -0.733487 0.20892 -2.03217e-16 0.0 -3.88251e-19 2.88542 -20.5393 0.839318 -0.0534781 28.203 0.685243 -7.64538 -15.9231 -19.1335 2.03217e-16 0.0 3.88251e-19 -1.41174 -21.3619 -4.24992 0.0322649 28.8368 -0.789662 9.46786 -16.5312 22.5263
-82.0259 83.0211 -207.944 -1.1282 -2.0593 9.2956 1.21683 -10.3379 10.8946 5.41321 3.29767 2.93252 -3.34133 2.40947 -4.11915 1.12008 -23.6109 -7.26032 -0.0 0.0 0.0 -0.0 0.0 0.0 -2.96827e-14 7.59334e-14 6.4605e-15 81.2465 27.7526 -8.73226 -15.7962 -8.49921 29.2435 -0.608878 21.6039 3.19046 6.46018e-10 -3.01065e-10 1.11097e-10 1.11829e-09 -5.06557e-10 1.78789e-10 6.46027e-10 -3.01079e-10 1.11071e-10 7.73091 5.47488 0.417314 6.46024e-10 -3.01074e-10 1.111e-10 2.90554 0.965183 0.102902 6.46035e-10 -3.01081e-10 1.11084e-10 10.2786 0.731801 0.0259123 6.4602e-10 -3.01065e-10 1.1109e-10 2.22167 -0.733487 -0.20892 -2.97559e-14 7.59377e-14 6.26172e-15 -87.166 42.4614 5.5704 18.0476 -10.7379 -34.1271 0.0248749 -4.49771 0.633426 9.84684e-11 -1.17781e-10 3.05629e-10 1.68625e-10 -2.07382e-10 5.30284e-10 9.84632e-11 -1.17779e-10 3.05632e-10 -7.73091 5.47488 -0.417314 9.84685e-11 -1.17784e-10 3.05632e-10 -2.90554 0.965183 -0.102902 9.84667e-11 -1.17784e-10 3.05631e-10 -10.2786 0.731801 -0.0259123 9.84781e-11 -1.17781e-10 3.05616e-10 -2.22167 -0.733487 0.20892 -2.03217e-16 0.0 -3.88251e-19 3.45431 -24.2703 1.04304 -0.174726 34.1597 0.899206 -10.9263 -19.3556 -23.8749 2.03217e-16 0.0 3.88251e-19 -2.00077 -25.4388 -5.26022 0.17926 35.2542 -1.04687 13.5313 -20.0233 28.0071
